# xmcd
# 
# Track frame offsets:
#     150
#     14615
#     120565
#     161897
# 
# Disc length: 3842
# 
# Revision: 2
# Processed by: cddbd v1.5.2PL0 Copyright (c) Steve Scherf et al.
# Submitted via: fre:ac v1.0.17
# 
DISCID=2e0f0004
DTITLE=Robert Betz - Die Mutter meiner Kindheit
DYEAR=0
DGENRE=
TTITLE0=Einführung
TTITLE1=Fragen zur Besinnung
TTITLE2=Inneres Begegnungsritual mit der Mutter_I
TTITLE3=Inneres Begegnungsritual mit der Mutter_II
EXTD=Eine Begegnung mit ihr für Klarheit, Frieden und Freiheit
EXTT0=
EXTT1=Erinnerung an die Beziehung zur Mutter in Kindheit und Jugend
EXTT2=
EXTT3=
PLAYORDER=
